<mxfile host="app.diagrams.net" modified="2024-03-11T11:06:48.913Z" agent="Mozilla/5.0 (Windows NT 10.0; Win64; x64) AppleWebKit/537.36 (KHTML, like Gecko) Chrome/122.0.0.0 Safari/537.36" etag="FPlYKU8Sa9pjOSqhJfOb" version="24.0.4" type="device">
  <diagram name="Page-1" id="vUSSLo9ejSJKy4wC1nID">
    <mxGraphModel dx="1050" dy="606" grid="1" gridSize="10" guides="1" tooltips="1" connect="1" arrows="0" fold="1" page="1" pageScale="1" pageWidth="827" pageHeight="1169" math="0" shadow="0">
      <root>
        <mxCell id="0" />
        <mxCell id="1" parent="0" />
        <mxCell id="6_ywia02MKTWS4lkKLjb-7" value="" style="shape=singleArrow;whiteSpace=wrap;html=1;arrowWidth=0.4;arrowSize=0.4;rotation=-90;fillColor=#bac8d3;strokeColor=#23445d;rounded=0;" vertex="1" parent="1">
          <mxGeometry x="357" y="217.75" width="64.5" height="40" as="geometry" />
        </mxCell>
        <mxCell id="6_ywia02MKTWS4lkKLjb-9" value="" style="whiteSpace=wrap;html=1;aspect=fixed;rounded=0;" vertex="1" parent="1">
          <mxGeometry x="344.63" y="110" width="90" height="90" as="geometry" />
        </mxCell>
        <mxCell id="6_ywia02MKTWS4lkKLjb-10" value="Etsy Store&lt;div&gt;Online Store&lt;/div&gt;" style="text;strokeColor=none;align=center;fillColor=none;html=1;verticalAlign=middle;whiteSpace=wrap;rounded=0;" vertex="1" parent="1">
          <mxGeometry x="352.15999999999997" y="170" width="76" height="20" as="geometry" />
        </mxCell>
        <mxCell id="6_ywia02MKTWS4lkKLjb-11" value="" style="shape=singleArrow;whiteSpace=wrap;html=1;arrowWidth=0.4;arrowSize=0.4;rotation=90;fillColor=#bac8d3;strokeColor=#23445d;rounded=0;" vertex="1" parent="1">
          <mxGeometry x="357" y="410" width="67.06" height="40" as="geometry" />
        </mxCell>
        <mxCell id="6_ywia02MKTWS4lkKLjb-12" value="" style="whiteSpace=wrap;html=1;aspect=fixed;rounded=0;" vertex="1" parent="1">
          <mxGeometry x="540" y="283.75" width="92.5" height="92.5" as="geometry" />
        </mxCell>
        <mxCell id="6_ywia02MKTWS4lkKLjb-13" value="Vlog Via YouTube Channel" style="text;strokeColor=none;align=center;fillColor=none;html=1;verticalAlign=middle;whiteSpace=wrap;rounded=0;" vertex="1" parent="1">
          <mxGeometry x="548.25" y="340" width="81.75" height="20" as="geometry" />
        </mxCell>
        <mxCell id="6_ywia02MKTWS4lkKLjb-15" value="" style="shape=singleArrow;whiteSpace=wrap;html=1;arrowWidth=0.49999847412109377;arrowSize=0.5449996948242187;rotation=0;fillColor=#bac8d3;strokeColor=#23445d;rounded=0;" vertex="1" parent="1">
          <mxGeometry x="450" y="315" width="80" height="30" as="geometry" />
        </mxCell>
        <mxCell id="6_ywia02MKTWS4lkKLjb-16" value="" style="shape=singleArrow;whiteSpace=wrap;html=1;arrowWidth=0.4;arrowSize=0.4;rotation=-180;fillColor=#bac8d3;strokeColor=#23445d;rounded=0;" vertex="1" parent="1">
          <mxGeometry x="245.88" y="312.5" width="77.5" height="42.5" as="geometry" />
        </mxCell>
        <mxCell id="6_ywia02MKTWS4lkKLjb-17" value="" style="whiteSpace=wrap;html=1;aspect=fixed;rounded=0;" vertex="1" parent="1">
          <mxGeometry x="141.25" y="280" width="100" height="100" as="geometry" />
        </mxCell>
        <mxCell id="6_ywia02MKTWS4lkKLjb-19" value="Facebook Page" style="text;strokeColor=none;align=center;fillColor=none;html=1;verticalAlign=middle;whiteSpace=wrap;rounded=0;" vertex="1" parent="1">
          <mxGeometry x="120" y="330" width="142.5" height="35" as="geometry" />
        </mxCell>
        <mxCell id="6_ywia02MKTWS4lkKLjb-20" value="" style="whiteSpace=wrap;html=1;aspect=fixed;rounded=0;" vertex="1" parent="1">
          <mxGeometry x="344.63" y="467.5" width="95.37" height="95.37" as="geometry" />
        </mxCell>
        <mxCell id="6_ywia02MKTWS4lkKLjb-22" value="Instagram" style="text;strokeColor=none;align=center;fillColor=none;html=1;verticalAlign=middle;whiteSpace=wrap;rounded=0;" vertex="1" parent="1">
          <mxGeometry x="323.38" y="520" width="142.5" height="25" as="geometry" />
        </mxCell>
        <mxCell id="6_ywia02MKTWS4lkKLjb-24" value="" style="whiteSpace=wrap;html=1;aspect=fixed;fillColor=#f0a30a;fontColor=#000000;strokeColor=#BD7000;rounded=0;" vertex="1" parent="1">
          <mxGeometry x="331.74" y="276.25" width="115" height="115" as="geometry" />
        </mxCell>
        <mxCell id="6_ywia02MKTWS4lkKLjb-25" value="Harriet&#39;s Website/&lt;div&gt;Blog&lt;/div&gt;&lt;div&gt;Landed Page&lt;/div&gt;" style="text;strokeColor=none;align=center;fillColor=none;html=1;verticalAlign=middle;whiteSpace=wrap;rounded=0;" vertex="1" parent="1">
          <mxGeometry x="354.62" y="315" width="69.25" height="30" as="geometry" />
        </mxCell>
        <mxCell id="6_ywia02MKTWS4lkKLjb-27" value="" style="ellipse;whiteSpace=wrap;html=1;aspect=fixed;fillColor=none;rounded=0;" vertex="1" parent="1">
          <mxGeometry x="120" y="70" width="530" height="530" as="geometry" />
        </mxCell>
        <mxCell id="6_ywia02MKTWS4lkKLjb-30" value="" style="shape=image;verticalLabelPosition=bottom;labelBackgroundColor=default;verticalAlign=top;aspect=fixed;imageAspect=0;image=data:image/jpeg,/9j/4AAQSkZJRgABAQAAAQABAAD/2wCEAAkGBwgHBgkIBwgKCgkLDRYPDQwMDRsUFRAWIB0iIiAdHx8kKDQsJCYxJx8fLT0tMTU3Ojo6Iys/RD84QzQ5OjcBCgoKDQwNGg8PGjclHyU3Nzc3Nzc3Nzc3Nzc3Nzc3Nzc3Nzc3Nzc3Nzc3Nzc3Nzc3Nzc3Nzc3Nzc3Nzc3Nzc3N//AABEIAKcAsgMBIgACEQEDEQH/xAAbAAEAAgMBAQAAAAAAAAAAAAAAAQIDBQcEBv/EAEUQAAIBAwEEBwIHDAsAAAAAAAABAgMEEQUGEiExBxNBUWGRsXGBFCJiocLR8BYXJjI2QlJVdJPB4RUjN0Vkc4KEkpSy/8QAGgEAAwEBAQEAAAAAAAAAAAAAAQIDAAQFBv/EAC8RAAICAgECAgkDBQAAAAAAAAABAgMREgQTIQVRFCIxQVNhcYHwI5HRJDIzcrH/2gAMAwEAAhEDEQA/ANSAD7s94AAxgADGAAMYZJTIBgp4LjJRMsK0OpFsk5KoZ4iOJRSL5JRVDJNoopFkWTKkpiNFVIsuRJRFsk3EqpEkogEpQKqZIIBPQfY8gAPZPBAAMEAAxgADGAAMAAAwSUyxQsgNDxZKGSCUJgfJbJOSpIjQ6ZZEplMkoRoopF0yUygQjiUUi+QVAmo+x5wAegeUAAYIABjAAGMASkMGybDIGCyQ5AyNqQkWIAGxksAEoYAEIlBICtjJAlEEoUYFipKFaHRIAFDkw4GC+Bgvsc+hTAwXwMB2NoUwSkWwMG2NoVwORdIPlzx25xkXcZQK4IeFzaXvPvtl9iaVW2hfa3ndkt6NDexhd8nz9xuP6Z2Q01ulRVplcH1FtvZ96X8Tz7PEYqTjXFya8jllyVtrCLk/kcp3o968xvR715nV1tps2uCUsfszJ+7TZzun/wBZien3fBf59jde34T/AD7HJ0496LcOx5Oqva/Zmo8TXD5Vq36In+j9lNpYyVnG361Li6C6upHxa7femB+Iyj/kraQPSnHvOtpHKSUbjaPQbjQL1Uaz6yjNN0auPxl3PxNTg7oWxnHaPdHbDE47R9hUYLYGBth9SuCUicDANjakYJQwSkDI2pAJwDZNqyMDBbAwLuNoVwMFsEpG3NoUwMF8DANxlWVSNpsxZQv9fsreos03U3prvUU5fw+c1yR9J0fRT2mo96pVGvL+ZG+zFUmvInyE4UykvJm66TNTqU42+l0pYhVi6tb5SzhR9mU2/Yjn+Pb7z6vpJf4SQ8LWH/qRq9mtGlrepq2y40YrfrTXNR7l4vkc3FlGrjp/cjxIQq4qm+yxlngsrG7vam5Z21as1z6uGce3uPbX2a1qhSc6umV8L9HEvmWT77Vtd03ZWhTsrS2Uqu7lUKeEop9sn9n5mntekObrJXWnx6t83SqZa9zXEmuXfP1oQ7fMlG/lWreqv1fn7T5LRrGN/q9rZVpulGrU3JS5NcPXs959NtZodrs5Cz1HSKk6FdVlFRc3Lsbys+ziu3JudoNJs9o9MWqaTh3Sjv05w+K6uPzX48ODfJruOd3F3dXkoSu7mtWlHhF1ZuWF4ZDC2V8lJPCXtQ9LlypqcXhLs4nR9pVT1vYlX26t9U4XMfkv85eTkjmGH2nTtN/rOjWqv8DXXlvHMzcKWqlH3Jm8OjjqQ8pMrgYLMI7dz0dCuBgsA7G0K4GCwNswaorgFgbZm1RAJBLqFdCASAdQOhBKBDYjsGUCT6Xo9/Kan/kzPmT6Xo9eNp6XjSn6IhdPNcjn5kf6af0ZfpH/ACl/21P1kbjovpw6jUKix1jnCL9iTx6s1HSRH8JY+NtD1kYdh9YpaTqkoXMt23uoqEpPgoyX4rfhxa96OaT24+q8jilTKzwxKPtwv+mq16tOtreoVKr+O7mon4Yk0l7kkvceHPDlk6DtdshXvbueo6WoyqVONWjJ43n3xfLL8cHzdrslrderGm7F0U3xnVklGPk239vdSF8dV3OrjczjSpT2Sx7vI+m6L6k5WV9TeerjVjKOe9rj6I+I1mEKesX0Kf4kbmol7N5nSErPYvZyXx+sqvLWeDrVGvTh5I5ZOUpylOo96cm3J97faTqnmcp+5nP4f+tfbfH+19l+fntOm6R/ZvU/Y7j6ZzLsOmaW8dG1V91lX+mcywGiWJT+o3h0f1Lv9mTkEA6tz1NSQQA7MGpIIAdzakggG3BqMjIGSPUK6gYGRkV2B1GACBXYFRJybvYu4VvtNZSlynJ03/qi0vnwaMmMnCcZxbjKL3otc012rxJSllYFtp6tcoeaaPtOk6zlDULS83c06lLqm+5xbePepPyPi+PbhnTdG1nTtqtMdhqap/CWsTpS+Lv/ACofy5HguejmMpt2mpShHsjVpbz8016EY2arDPH4fOhxYej8r1XH9mvsfPaNtZquk040IVI16C5U6yzheDTz6m0rdId/KDjRsbenP9Kc3L5uBl+9xddmp0f3L+sfe4u/1lR/cv6wOUGxp2eEWS3k1n6M+S1HUbzU7jr76vKrPsy8KPsR5vtg+2XRxc546pRj7KDf0jb6VsfpuiT+G31wq8qXxlOr8SnB9+M+o3VSXYtLxXhVQxW8+SSf8FtQg9I6PJUK63KnwRU5R7pz4NebZzA+m212kjrFeNrZt/A6Ms774dZLv9iPmDVywinhfGsrqcrFiUnknIyQCymei4kggDqYupOAEMjKYuoAyA9Q2pAAOPqF9AAAOwOoAyMiOwKiAQ2Q2Tdg2Czxw71xR76Gu6tQioUdRuoxXJOq36muyMidQWdMJ9pLJuPuq15f3nX8o/UPuq139aVvKP1GmbGQdQn6Fx/hx/ZG4e0+uy56nXx4YXojwXV7dXks3lzWrtcutqSljzPNkJmVg0eNVB5jFL6JF/YCuSUx1YVwSCMkodTBgAAopitAAFFMRxAADsDUjIyUB5vUZ04LNjJUG3NgtkhsglIVzNghsEqJO6I5o2UVBkUCdwm7UDYxYGDPuEOAOsjbGHAM24Q4BVqNsYgXcSuB1NByMkplWCikbBdMlGMtkpGYGiwITGSqmgYJBGQHZAwVGDLuDcPM6iDsY0gomRRLborsNsY90lQMiiWUScrRXIxqBdQMiiXUCErhHIxKBZQMyiW3SErxHMwbg3D0bpDiL1hdzzuBDgendIcQq8KmeVwKOB63ApKBeN46meRxKNHqcCjgdMLiikeYGZwKOJ0RsTHUiiZORghlFIJOQQA7hPWkMAHmZIE4JSAEbYrZbBaMQCcmK2WSLpAHPJiMskWSJBCTEYwMAE8sGRghoAKbNkq0VcSAWi2MmWoW07mvGjDdTly3uXLP8D1rQbmXHrKH/KX1AHpcatTjlnFyOTZXZrELZ67fKpQ4+L+o1d1aztq86FRxc4PD3eXLIBecVBdh+HyrLLHGXkYHAruAAUmerljcAAdmbLP/2Q==;rounded=0;" vertex="1" parent="1">
          <mxGeometry x="372.35" y="478.19" width="44.56" height="41.81" as="geometry" />
        </mxCell>
        <mxCell id="6_ywia02MKTWS4lkKLjb-31" value="" style="shape=image;verticalLabelPosition=bottom;labelBackgroundColor=default;verticalAlign=top;aspect=fixed;imageAspect=0;image=data:image/jpeg,/9j/4AAQSkZJRgABAQAAAQABAAD/2wCEAAkGBwgHBgkIBwgKCgkLDRYPDQwMDRsUFRAWIB0iIiAdHx8kKDQsJCYxJx8fLT0tMTU3Ojo6Iys/RD84QzQ5OjcBCgoKDQwNGg8PGjclHyU3Nzc3Nzc3Nzc3Nzc3Nzc3Nzc3Nzc3Nzc3Nzc3Nzc3Nzc3Nzc3Nzc3Nzc3Nzc3Nzc3N//AABEIAFwAXAMBEQACEQEDEQH/xAAbAAACAgMBAAAAAAAAAAAAAAAABwMGAgQFAf/EAEQQAAEEAQEBCA0ICwEAAAAAAAEAAgMEBREGBxIhQXJ0sbIUIjE1NlFTYXGRkpPRExUXMjRDgcEjJDNCUlSis8Lh8GL/xAAZAQEAAwEBAAAAAAAAAAAAAAAAAQMEBQL/xAAoEQACAQIEBQUBAQAAAAAAAAAAAQIDEQQSMTITIVFxsRQzQYHRImH/2gAMAwEAAhEDEQA/AHigBACAEAIAQAgBACAEAIAQAgK9tTn34wR1KLWvvTDUb7uRt/iP5f8Aa30KOfm9Cuc8vJFDu3d/ITet2bc2vD+kIa30AcAW+MEtEZ238mt2XX8jL753xU5RcOy6/kZffO+KZRcOy6/kZffO+KZRcOy6/kZffO+KZRcOy6/kJffO+KZRc9FuvrwxTDziU/FMoudrE567jiJYLElumP2kErtXNH/knhHQqp0Yz+LM9xm0MWnZiuVorEDt9HK0OafMuc04uzNCd1cmUEnjjoNUAsNo7DjlsrZ17YSNiYfEA0D/AGunRX8RRlnuZWleVggBACA7Ozmz1nOTO3jvkq8Z0kmI14fEBxlU1ayp9z3CDkXOLYTEMYA91mR3G4yAdAWR4qoXcKJrZnZDFU8Tcswif5SKFz26yajUBeqeInKaTIlTilcpNCQx2WDid2pC3S0KBibBuPzRNFr2sNl7GeYaB3SSufil/d/8NNLQsizFhhMdInHzIBUZp2/lyLvHZ/ILp0dkTJPcziK88AgBAe6IBubI12V9nKIYNN/EJHecu4T0rlV3eozXTVoo38lehx1KW3YJEcY1OndPiA/FeIRc5ZUem0ldlJym2zb1CzUbj3ME0bmB5m7mo7umi2wwuWSdyl1bq1iqVvtEXKC1vQpGLsJ3uuc7d1WrnYrcu36aKWhZVmLSK19nk5JQCWzFqWP51cHA723oA4eZq61BfxHsY6j5s4zMqfvIvxaVflK8xM3JQHu79vpCjKycxK27WP3v9JTKxdF9xOxVbIYupd7OlHZELJdAwaDfDVYZ4qUZONtDRGkmr3Ltjqoo0K9Rri8QxhgcRwnQaLHKWaTZclZWIc3jW5bHSU3yOja8tO+aNSNCD+SmnPJLMRKOZWKhmdjq+NxNy625LIa8LpAwtA32g10WuninKajbUqlSSTZRK2Qe+3CGsa0F47vDxrc48ihPmM7c6e5+Mvl510vPA9hi5uL3rt+mmjoy1rKWkVr7NJySgEdm/wBnludj/Fdehsj2MVTVldAWkqMgEJMgEA0cBt/h8fhKFKeK4Za9eON5ZG0gkNAOnbLm1MJUnNyXyaYVoqKRe8dciyFCvdgDhFPGJGB40OhGo1WOUXGTi/gvTurkOaytfC46S9bbI6GMtBEY1PCQB0qacHUllREpKKuym53bzEZHC3qcEVsSzwPjYXxtA1I04e2WynhKkZqT+CqVWLi0LykP1uDljpW+WhnWo1tzjvXf5+/qMXMxm9dv01UdGW1ZC0hufZZeSUAkc39TLc7HQ1dehsj2MVTVldAWkrMwEBkAoBkApA+NkPBbE80j6oXEr+7LubqexHP3SPBC3y4v7jVZhPeX34PNbYJ4BdYyGxSH61Dyx0qHoStRqbnPeu/z5/UYuZjN67fppo6MtiyFxBd4KkvJKASeaHa5XnY6Grr0NkexiqbmcABaSs9AUAyAQGYCkD12R8F8TzSPqhcSv7su5up7EaG6N4JW+XF12qzCe8vvwea2wUAC6xkNimNLUPLHSktCUNLc5713ufP6jFy8ZvXb9NVHRlrWQtIbo1qy8koBKZZpf87NH1m2A4jzaNXXobI9jHU3M4AC0FRkAgMwFIMgEJHnsl4MYrmkfVC4lf3ZdzbT2I0N0XwTtcuPrtVmE95ffg81tgol1zKT0ml1uID+LX1LzLQIZ+5z3quniN5+nssXMxm9djVR0ZbFkLTCVu+jc3xhAKjaijLjMq+0Iy+CUb2ZoHFxFbsLVVsj+iirB3zIrsmMbN+koSsfGf3SeELdmtqZ8vQxGKtj7se0FOdDKz35rt+THtBM6GVmYxlryY9oJnQysstHaTaKjTgqQMq/JQsDGb5mp0A0GvCs8sPRk3J35linNKxHls7nstRfSuMr/IvIJ3jdDwHUcfmU06NKnLNG4lOUlZnBGOsk/UA9LlfnR4sTxtZU7SJwltP4Bp3GrxKSteXJEpX5IaGxtfsXDwwNB0bqS4/vOJ1JXJq1OJNyNcY5VYsCrPQIDQymKr5KLeTN4eIoCo2tzuJ7y6GcNPo0V0cRVirJnh04v4NU7nVjitt9ZU+pq9fBHCh0PBud2v5pvrKepq9fA4UOgfR3a4rTfWU9TV6+BwodD36PLf8ANN9aeqq9fA4Ueh4dzy5xWWetPU1evgcKHQ8+j22eA2GaelPU1evgcKHQ6+I2GgpvElh4kcFXOcpu8nc9qKWhba8LYGBjBoAvBJKgBACAEAIAQAgBACAEAIAQAgP/2Q==;rounded=0;" vertex="1" parent="1">
          <mxGeometry x="171.25" y="290" width="40" height="40" as="geometry" />
        </mxCell>
        <mxCell id="6_ywia02MKTWS4lkKLjb-32" value="" style="shape=image;verticalLabelPosition=bottom;labelBackgroundColor=default;verticalAlign=top;aspect=fixed;imageAspect=0;image=data:image/jpeg,/9j/4AAQSkZJRgABAQAAAQABAAD/2wCEAAkGBwgHBgkIBwgKCgkLDRYPDQwMDRsUFRAWIB0iIiAdHx8kKDQsJCYxJx8fLT0tMTU3Ojo6Iys/RD84QzQ5OjcBCgoKDQwNGg8PGjclHyU3Nzc3Nzc3Nzc3Nzc3Nzc3Nzc3Nzc3Nzc3Nzc3Nzc3Nzc3Nzc3Nzc3Nzc3Nzc3Nzc3N//AABEIAKgAswMBIgACEQEDEQH/xAAbAAEAAgMBAQAAAAAAAAAAAAAABgcDBAUCAf/EAEoQAAEDAwEEBwMGBhIDAAAAAAEAAgMEBREGEiExQRMiUWFxgZEUobEyQnKywdEHNlJTYpIVFiMkMzVDVFVjc3STlKLh4vBFgrP/xAAaAQEAAgMBAAAAAAAAAAAAAAAABAUCAwYB/8QAMxEAAQMCBAIIBQUBAQAAAAAAAQACAwQRBRIhMUFxEyIyUWGBodEUkbHB8CMzNFLh8RX/2gAMAwEAAhEDEQA/ALxRERERERERF8JDQSSABxJRF9RRe8ayo6QuioG+1SjdtA4jHnz8vVQ65X25XIkVNS4Rn+Sj6rfQcfPKgzV8Ueg1KsqfC55dXdUePsrHrb7a6EltRWxB44sadpw8hkrj1Gubcw4ggqZe/ZDR7zn3KvuCKA/EpT2bBWseDwN7RJU1fr456lt3drp/+K8jXz89a2tx3T/8VDEWn46o/t6D2W//AMyk/p6n3U8h15Sn+HoZ2fQc13xwupSars9Sce1dC7smaW+/h71V6LY3EZxvYrU/CKZ21x+eKumORkrA+J7XsPBzTkFelTdHW1VDJt0dRJC7nsOwD4jgfNSq064kYWx3WLbb+eiGD5t5+Xop0WJRu0eLKtnwiVmsZzD1U6Ra9FW01dAJ6SZksZ5tPDuPYVsKwBBFwqkgtNiiIi9XiIiIiIiIiIiIiIi07tcqe1Ubqmpd1Rua0cXu5ALxzg0XOyya0vIa0alerlcKa2UrqirkDGDcBzcewDmVXF+1HV3dxjBMNJyhaflfSPPw4LTu90qbtVmoqndzIweqwdg+9aKoaqtdKcrdG/VdPQ4cyAZ36u+iIiKArRERERERERERERERERbVvr6q3VAno5nRv5jk4dhHNWJp3UlPd2iKQCGrA3x53O72/cqxXpj3Rva+Nxa9py1zTgg9qlU9U+A6bdyhVdDHUjXR3erpRRvSmoxdI/ZawhtawceAlHaO/tH/AESRdBFK2VuZq5SaF8Lyx41RERbFqREREREREXiaVkET5ZXBkbGlznHgAFVeobxJea4ynLYGZELDyHae8qRa/uxAZa4HccPnx2cm/b6KEqkxCozO6Juw3XR4TSBjemduduX+oiIqxXSIiIiIiIiIiIiIiIiIiIiIiIi9wyyQSslheWSMO01w4gq09OXhl4t4l3NnZ1ZmDke3wP8A3gqpXU07dXWi5snJPQu6kw/R7fLiplHUdC/XY7qvxCkFRFcdobeytdF8aQ4BzSCDvBHNfV0S5JERERFiq6iOlppaiU4jiYXu8AMrKozr6s6Cztp2nrVEgafojefs9Vqmk6OMv7lup4umlazvUArKmStq5qqb+EleXHu7vLgsKzUcrIKqGaWJszGPDnRu4PHYptZKvT14qPZRZ4YZtkuAdE3BxxwQueii6Y2LrHxXWzzmnbcMJaO7goGisq80FjtNC6rmtUT2tcG7LGDO845rgfs1pn+gnfqM+9bJKTozle8A+fstEVeZW5mRkjy91FEUrF70z/QTv1GfepPb6SyVVC2so6CkMbmkgmFuRjiDu4r2KjEhs14Xk2IGEXfGR8lVqIDkAr61pccNBJ7AMqErJfEX0jBwdxC+IiIiIiIiIiIiIiIiIisjQ1x9stAgecy0p6M/R+b93kpGq10NWGmvjYiepUsLD4jePgR5qyl0VDL0kIvuNFyOJQ9FUG2x1/PNERFMUBFX34Q59u608HKKHa83H/iFYKq/WchfqSrHJmw0fqA/aq/EnWht3lWuDtzVN+4H2XEXc0Ucakpe8PH+grhrtaN/Gai8X/Ucqen/AHmcx9V0FX/HfyP0Uw13+Lsv9oz4qtVZWu/xdl/tGfFVq3rHDd57lKxL9/yH3ULB/wCMeZ+yZUq0jdoaS2XKlqZ2R9XbiD3Y2iWkED0Hqs2nre6n0xd6uogLZJIX9H0jN+GsO8Z7yfRQ9aW5qctk7wpDiyrD4uAI19f8QcApb+D63ukrZa97f3OJpjYTzceOPAfFciwsspfI+9yytDSOjYwOw7tzgZ7OYVlWqWkmt8MluaG0pBEYDdkYBxwW+gpw54eSNOHFRcUqnMjMYaddL8PJVVeP43r/AO9S/XK1FOKmTR4rqj2mNwn6Z/SlwlI2to54buKj+pXWp1VCLK1ghEfXLQ4Zdk9vctE0GUF2YHkVKp6kvszI4abkaLjpkKX6b09SfsY67XYF8QYZGxcg0cz28OC1jqqmY/Zp7FRNgHBpAyR5DC8+HDWh0jrX8178WXvLYm5rb7AKMop5cIrRcNLTXSG3wxSdGcbLQ0sfnHLGd642lZbPO+OguVC180jzsTk8SeDT2L11NZ4bmGuxWLa3NG5+Q9U2I0UcRWdV2GxUdLNUyW9pZEwvcASTgDO7eoBd6ujq52OoKFtJG1uC0Oztd5SelMA6zhde0ta2pPUabd+nutBFINM1Foe+KhuVvEsssuyyfOd53AELt32PTljLGPtjZqh7dpsYJ4dpJO4IymzR58wsklZkl6LISeG2vqoXQz+y1tPUA46KVr/Q5VyKkzwIVyW6TprfTSn58TXeoCm4W7tN5KuxtvYdzWwiIrdUCKqtWbtR1/02/VCtVVjraLo9R1J/ONY8fqgfYq3Ex+kOf2Kt8GNpyPD7hcJdrRv4zUXi/wD+blxV29GDOpaPu2/qOVTB+8zmPqr6q/jv5H6KeajuUlqtb6uFjHua5rdl/DecKKjXdZzo6c+DnLu67/F2X+0Z8VWqsK6oljlysNhZVOGUkM0GZ7bm/srGF3betJ3KcR9FIyGRj2bWcHZzuPgq5W5R3Oqo6WppoHgRVLdmVpbnIwRu7NxWGjppKyrhpoR15Xho7u9Q55jPl79lY01OKbP/AFvcLCrS0f8Ai3R+DvrFV5fLe213KSjbN03RhpLtnZ3kZ4Z71Yej/wAW6Pwd9YqVhzS2dzTuB9woWLvD6Zrm7Ej6FVxeP43r/wC9S/XK1Ft3j+N6/wDvUv1ytRVr+0Vbx9gclaOnHwXHTVPEcOZ0HQSt8Bgj/vaojeNIV9E5z6Npq6fiNkdcDvHPy9Fy7Xc660TdLSvLA75THjqvHePtU0tOs6KrLYq5hpZTu2icsPny8/VWbZIKljWSaOCpXw1VHI6SHrNOtvz7KEx3Orgt09sBAglftPa5vWBGPTgFptc5j2vY4tc0gtI5Ec1Z2pLDT3alfLHG1tY1uY5G7i79E9o+CrAHIyolVA+FwDjccFPoqmOoYXNFjxCty1Vcd3s8U7mgtmj2ZGd/Bw9cqq7hSOoK6ekfnMLy3J5jkfMYKlX4PLhsy1Fvedzh0sfjwcPh6FYvwhUPRVkFewdWZuw8/pDh6j6ql1J6embLxG6g0Y+FrHQcHbfZauhqAVN2NVJ/BUjdsk8No7h9p8guVe683O6VFX8xzsRjsaNw+/zUiqM2LRjIfk1VwOXdoBG//TgeJUPUWb9ONsXmfPb0U6m/VmfNw7I5Df5lFb1kyLLQA8fZo8/qhVAeBVzUcfQ0kEX5EbW+gUrCx1nFQcbPUYOazIiK5XPIoH+EWn2a2kqQN0kZjJ+icj6xU8XA1vRe12KR7Rl9O4SjwG4+4k+Si1seeBw81Nw+Xo6lpPHT5qtAC4gNBJPADmpRoq11rb1FVS0sscMbXZfIwtByMDGePFRulqH0tTFURY6SJwc3IyMhdw6yvJ4SQDwiVJTuiY4OeToulq2zvYWRgajiplqyhnuFkmgpW7UuWuDfysHgq5NouYOP2Nrf8u/7l0f24Xr+cR/4TU/bfev5xH/hNUiolp53ZjcfnNRKSnq6ZmQBpHM+y5wtFzP/AI2t/wAu/wC5S7RmnaijnNfcI+jkDdmKM7yM8XHs3bvMrh/twvX5+P8AwgvQ1leB8+A+MX+6xhdTRvDjc2WdQytmjLAGi/ifZaOppem1BXv/AK3Z/VAb9inWiZ2S6dp2tI2onPY8dh2ifgQq2nlfPPLPJjbleXux2k5K2rVdqy0ymSjl2dr5bHDLXeIWFPUiOcyHY3WVVRmambE06i3oLLo6isVwjvNS6CkmmimkMjHxMLh1jkg44byeK0bpZqq109NLWbDHz7WItrLm4xx9V1365uTmYZBStd+VsuPuyo9W1lRX1Dp6uV0sp3ZPIdgHILGb4fUsuSfRZ0wquqJLAD5lTK9WyS4aRtk8EZfPTwMdstGSWloyB7j5KDc9nnnGF2qDVN2oYmRRzMkiYA1rJWA4A5ZGD71tHWdfnbFJQiX8vonZ+ss5XQS2dcg210/1YQMqYAWZQ4XNtbb+SlluqHWnSsE1xJa+GHe13H9FvjwCq8DAAW7c7tW3R4fWzl4bvawDDW+AXmut1Xb+i9shMXSt2mZcDkeR71jUzdNYNGjfzVZUdP8ADlxeRmeb/wDF5ttY633Cnq2ZzE8OIHMcx5jIVq19FTXeijjl68LnMlaRzwQfeN3mqhVg0lwns+iopqrAn2NiBp4nOdj0G/wC30EgAe1/ZtdRsVhLnRvZ2r2/OSjes7h7depGMOYqb9yb4/OPru8lwkyTvJJPMlFAkeZHlx4q0hiEUYYOC27RTe13Skp8ZD5mg+Gcn3ZVwKvNAURnuslU4dSnj3H9J274ZVhq6wxloi7vXO4zLmmDBwH1/AiIisVUIvL2NkY5jwHNcCCDzC9IiKoLvQPtlynpH5wx3UJ+c08D6LTVh65s5rKIV0Dcz046wHFzOfpx9VXi5qqg6GQt4cF2VFUiohDuPFERFGUtERERERERERERERERZqKD2qsp6f8AOytZ6nCsXV1jmvFPT+yOjbLC44DyQC0jf8Aq0XQhvl1hYGR3CoDRwBfnHqpcE0bGOY8XBUGqp5ZJGSRuALb7+Kkdv0nDbv39f6mEQxb+jaeqT3k8fADf7lxNS3p15rQ5oLaaLIiYfe495XOqqupq3h1VUSzEcOkeTjw7FgWMkzS3JGLD1KyhpnB/SyuzO4dw5InBF39HWg3K5CaVuaanIc7PBzuTftP+61RxukeGN3K3zStiYXu2Cmek7abbZomSNxNL+6SDmCeA8hgLsoi6eNgY0NHBcXLIZHl7tyiIizWtERERFW2rrCbXUmppmfvOU7gP5N3Z4dnorJWOogiqoHwVDBJE8Yc08wo9TTidluPBS6OrdTSZhtxCphF29Saems8xkj2pKNx6knNvc77+a4i5ySN0bsrhquuilZKwPYbhERFgtiIiIiIiIiIiIiIiIiIi2KCiqLhUtpqSMvkd6AdpPIL0Ak2C8c4NFzsvVtoZ7lWR0tM3L38TyaOZPcrWtVvhtdDHS046rRvceLjzJWrp+yQWal2GYfO/fLLj5R7B2BdVX9FSdCMzu0VyuI13xDsrOyPXxRERTlWoiIiIiIiIiIiLxLFHNG6OVjXxuGHNcMghQbUGjpIS6otIMkfE05PWb9E8x3cfFTxFonp2TCzlJpqqSnddh8lSrmlri1wLXNOCCMEFfFbF2sVvuwzUw4lxgTM3PHnz81D7loqvpyXUL2VTPyfkv9+4+qppqCWPVuo/OC6GnxSCXR3VPj7qLos1TS1FI/YqoJYXdkjC3KwqERY2KsgQRcIiIvF6iIvrWl7gxgLnHg0DJKIviLtW/S12riD7P7PGfnz9X3cfcpbadHUFEWyVWauYfljDB/68/PKlxUc0vCw8VBnxGnh3Nz3BRCx6drbu4Pa3oabO+Z43H6I5/BWLaLVSWmn6GkZjPy3u3uee8rdAAAAGAOAX1XNPSMg1Gp71z1XXy1Oh0b3IiIpSgoiIiIiIiIiIiIiIiIiIiIiIiLy9jZGlr2hzTxBGQubUads9RkyW+EE82DY+GERYuY13aF1myR7OySFpv0bZnfJhlb4TO+1eRouzjiyY+MpRFq+Fg/oPkt3xtR/c/NbMOlrLCciia4/1j3O+JXTpqSmpW7NNTxQjsjYG/BEWxsTGdkALU+aR/bcT5rMiIs1rREREREREREREREREX//Z;rounded=0;" vertex="1" parent="1">
          <mxGeometry x="369.39" y="122" width="40.49" height="38" as="geometry" />
        </mxCell>
        <mxCell id="6_ywia02MKTWS4lkKLjb-33" value="" style="shape=image;verticalLabelPosition=bottom;labelBackgroundColor=default;verticalAlign=top;aspect=fixed;imageAspect=0;image=data:image/png,iVBORw0KGgoAAAANSUhEUgAAAFwAAABcCAMAAADUMSJqAAAAaVBMVEX/AAD/////PT3/Kir/+Pj/XV3/Ozv/Njb/HR3/5+f/trb/Rkb/QED/n5//7e3/19f/vLz/qqr/gID/ZGT/kpL/ior/Skr/yMj/e3v/hIT/cHD/aGj/UlL/WFj/dXX/paX/0ND/ERH/39/1ShhhAAABpklEQVRoge3YW3OCMBAF4F0ElDtyEby3/v8f2SB1xI7WbMyZsZ2cV4ZveAjZ5BADQw53uMMd/rfxvOjKOF5mTbuuqn6zrQOV/W6VpKkXhvNzQpU0We32w7N6uzn01bptsmUcl12RP8KjZk4vZ95Ed/Cofl0eU0c/8cwWPSS7xa199ph6igd2baLgive2baL+gpf2baJyxP0FAl/4Z/yIsImOZxzy4erTB7zA2ESFwq3+PtNkCre+xi8JFJ6g8EThHgr3/ju+WAHxGcefOFztEy0S50j6Q0hw5k42wGW4cAOV4uwLhpYYZz5pL0sDXE1FzQFghDM3SJxznXOOKc78EQJx5iUSZ7/9fcN5CecShxfpk7fMcf/w9C1jXOc8Yoh3Mw3bDI/2OrQR7muPJDkuGKZSXOOnN8Xz58vPGJcehwV4qbX8THA+7aS0Pr6W0+9xEH1THHptgV64oFdF6CUXej3HFgvQSgRa5mBrKGyBxry1a99Uf9jSElu3Dnwjme0Pcr8oHuf7pOLuD9OK2wuvFXeaDhV38F1x95VOxW0/Dne4wx3+5/AvtUocdPsbZ/oAAAAASUVORK5CYII=;rounded=0;" vertex="1" parent="1">
          <mxGeometry x="572.25" y="293.13" width="33.75" height="33.75" as="geometry" />
        </mxCell>
      </root>
    </mxGraphModel>
  </diagram>
</mxfile>
